<svg width="1680" height="1080" fill="none" xmlns="http://www.w3.org/2000/svg"><path fill="#F4F4F4" d="M0 0h1680v1080H0z"/><mask id="a" maskUnits="userSpaceOnUse" x="0" y="0" width="1680" height="1080"><path fill="#F4F4F4" d="M0 0h1680v1080H0z"/></mask><g mask="url(#a)"><path d="M1158 1013a87 87 0 0174-41h23a87 87 0 0174 42l32 53c30 38 2 94-46 94h-144c-48 0-76-55-47-94l34-54z" fill="url(#paint0_radial)"/><path d="M1158 1013a87 87 0 0174-41h23a87 87 0 0174 42l32 53c30 38 2 94-46 94h-144c-48 0-76-55-47-94l34-54z" fill="url(#paint1_radial)"/><path d="M1169 899a87 87 0 0173-40h3a87 87 0 0174 41l22 37c25 32 2 78-38 78h-119c-40 0-63-46-39-78l24-38z" fill="url(#paint2_radial)"/><path d="M1169 899a87 87 0 0173-40h3a87 87 0 0174 41l22 37c25 32 2 78-38 78h-119c-40 0-63-46-39-78l24-38z" fill="url(#paint3_radial)"/><path d="M1187 809a67 67 0 01113 1l16 27c19 23 2 58-28 58h-89c-30 0-47-34-29-58l17-28z" fill="url(#paint4_radial)"/><path d="M1187 809a67 67 0 01113 1l16 27c19 23 2 58-28 58h-89c-30 0-47-34-29-58l17-28z" fill="url(#paint5_radial)"/><path d="M1212 707a34 34 0 0132-22c14 0 27 9 32 22l14 37c13 27-7 59-37 59h-19c-30 0-50-32-37-59l15-37z" fill="url(#paint6_radial)"/><path d="M1212 707a34 34 0 0132-22c14 0 27 9 32 22l14 37c13 27-7 59-37 59h-19c-30 0-50-32-37-59l15-37z" fill="url(#paint7_radial)"/><path d="M1068 1002a72 72 0 0161-33h19a72 72 0 0162 34l26 44c25 32 2 78-38 78h-119c-40 0-63-46-39-78l28-45z" fill="url(#paint8_radial)"/><path d="M1068 1002a72 72 0 0161-33h19a72 72 0 0162 34l26 44c25 32 2 78-38 78h-119c-40 0-63-46-39-78l28-45z" fill="url(#paint9_radial)"/><path d="M1077 908a72 72 0 0161-33h2c25 0 48 13 61 34l19 31c20 26 1 64-32 64h-98c-34 0-53-38-33-64l20-32z" fill="url(#paint10_radial)"/><path d="M1077 908a72 72 0 0161-33h2c25 0 48 13 61 34l19 31c20 26 1 64-32 64h-98c-34 0-53-38-33-64l20-32z" fill="url(#paint11_radial)"/><path d="M1092 834a55 55 0 0147-26 55 55 0 0147 26l13 22c15 20 1 49-24 49h-73c-25 0-39-29-24-49l14-22z" fill="url(#paint12_radial)"/><path d="M1092 834a55 55 0 0147-26 55 55 0 0147 26l13 22c15 20 1 49-24 49h-73c-25 0-39-29-24-49l14-22z" fill="url(#paint13_radial)"/><path d="M1113 749a28 28 0 0126-18c12 0 22 7 27 18l11 31c11 22-5 48-30 48h-16c-25 0-41-26-31-48l13-31z" fill="url(#paint14_radial)"/><path d="M1113 749a28 28 0 0126-18c12 0 22 7 27 18l11 31c11 22-5 48-30 48h-16c-25 0-41-26-31-48l13-31z" fill="url(#paint15_radial)"/><path d="M1297 886a99 99 0 0183-45h36a99 99 0 0185 47l41 68c36 47 3 115-56 115h-176c-59 0-93-67-58-115l45-70z" fill="url(#paint16_radial)"/><path d="M1297 886a99 99 0 0183-45h36a99 99 0 0185 47l41 68c36 47 3 115-56 115h-176c-59 0-93-67-58-115l45-70z" fill="url(#paint17_radial)"/><path d="M1309 748a99 99 0 0184-46h11a99 99 0 0184 47l30 49c30 39 2 95-47 95h-145c-50 0-78-56-48-95l31-50z" fill="url(#paint18_radial)"/><path d="M1309 748a99 99 0 0184-46h11a99 99 0 0184 47l30 49c30 39 2 95-47 95h-145c-50 0-78-56-48-95l31-50z" fill="url(#paint19_radial)"/><path d="M1330 641a81 81 0 01138 1l20 33c22 29 1 71-36 71h-108c-36 0-58-42-36-71l22-34z" fill="url(#paint20_radial)"/><path d="M1330 641a81 81 0 01138 1l20 33c22 29 1 71-36 71h-108c-36 0-58-42-36-71l22-34z" fill="url(#paint21_radial)"/><path d="M1360 516a42 42 0 0139-26c17 0 33 11 39 27l17 45c16 33-8 72-45 72h-23c-37 0-61-39-46-72l19-46z" fill="url(#paint22_radial)"/><path d="M1360 516a42 42 0 0139-26c17 0 33 11 39 27l17 45c16 33-8 72-45 72h-23c-37 0-61-39-46-72l19-46z" fill="url(#paint23_radial)"/><path d="M1350 338c-1-5 5-9 9-5 22 21 57 21 79 0 3-4 10 0 9 5-8 30 10 60 39 68 5 2 5 9 0 11-29 8-47 38-39 68 1 5-6 9-9 5a56 56 0 00-79 0c-4 4-10 0-9-5 7-30-10-60-39-68-5-2-5-9 0-11 29-8 46-38 39-68z" fill="url(#paint24_radial)"/><path d="M1434 408l-15-27c-1-2-3-3-5-3h-31a6 6 0 00-5 3l-15 27a6 6 0 000 6l15 27a6 6 0 005 3h31c2 0 4-1 5-3l15-27a6 6 0 000-6z" fill="#fff"/><path d="M229 845a87 87 0 0173-40h39a87 87 0 0174 41l40 65c33 44 2 107-53 107H240c-55 0-87-63-54-107l43-66z" fill="url(#paint25_radial)"/><path d="M229 845a87 87 0 0173-40h39a87 87 0 0174 41l40 65c33 44 2 107-53 107H240c-55 0-87-63-54-107l43-66z" fill="url(#paint26_radial)"/><path d="M240 716a87 87 0 0174-40h15a87 87 0 0174 42l29 47c28 36 2 88-44 88H254c-46 0-72-52-45-89l31-48z" fill="url(#paint27_radial)"/><path d="M240 716a87 87 0 0174-40h15a87 87 0 0174 42l29 47c28 36 2 88-44 88H254c-46 0-72-52-45-89l31-48z" fill="url(#paint28_radial)"/><path d="M258 620a75 75 0 01128 1l18 30c21 27 1 66-33 66H271c-34 0-53-39-33-66l20-31z" fill="url(#paint29_radial)"/><path d="M258 620a75 75 0 01128 1l18 30c21 27 1 66-33 66H271c-34 0-53-39-33-66l20-31z" fill="url(#paint30_radial)"/><path d="M285 504a39 39 0 0137-25 39 39 0 0136 25l16 42c15 31-8 67-42 67h-21c-34 0-57-36-42-67l16-42z" fill="url(#paint31_radial)"/><path d="M285 504a39 39 0 0137-25 39 39 0 0136 25l16 42c15 31-8 67-42 67h-21c-34 0-57-36-42-67l16-42z" fill="url(#paint32_radial)"/><path d="M9 973a87 87 0 0173-40h57a87 87 0 0175 41l49 80c38 50 2 122-60 122H18c-62 0-98-72-61-122l52-81z" fill="url(#paint33_radial)"/><path d="M9 973a87 87 0 0173-40h57a87 87 0 0175 41l49 80c38 50 2 122-60 122H18c-62 0-98-72-61-122l52-81z" fill="url(#paint34_radial)"/><path d="M22 827a87 87 0 0173-40h31a87 87 0 0174 41l37 59c31 42 2 101-50 101H34c-52 0-81-59-50-101l38-60z" fill="url(#paint35_radial)"/><path d="M22 827a87 87 0 0173-40h31a87 87 0 0174 41l37 59c31 42 2 101-50 101H34c-52 0-81-59-50-101l38-60z" fill="url(#paint36_radial)"/><path d="M39 722a86 86 0 01145 2l21 34c23 31 1 75-37 75H54c-39 0-61-44-38-75l23-36z" fill="url(#paint37_radial)"/><path d="M39 722a86 86 0 01145 2l21 34c23 31 1 75-37 75H54c-39 0-61-44-38-75l23-36z" fill="url(#paint38_radial)"/><path d="M70 591a44 44 0 0182 0l19 48c17 35-9 76-48 76H99c-39 0-65-41-48-76l19-48z" fill="url(#paint39_radial)"/><path d="M70 591a44 44 0 0182 0l19 48c17 35-9 76-48 76H99c-39 0-65-41-48-76l19-48z" fill="url(#paint40_radial)"/><path d="M192 1002a87 87 0 0174-40h15a87 87 0 0174 41l29 47c28 36 2 89-44 89H206c-46 0-72-52-45-89l31-48z" fill="url(#paint41_radial)"/><path d="M192 1002a87 87 0 0174-40h15a87 87 0 0174 41l29 47c28 36 2 89-44 89H206c-46 0-72-52-45-89l31-48z" fill="url(#paint42_radial)"/><path d="M210 905a75 75 0 01128 1l18 30c21 28 1 67-33 67H223c-34 0-53-39-33-67l20-31z" fill="url(#paint43_radial)"/><path d="M210 905a75 75 0 01128 1l18 30c21 28 1 67-33 67H223c-34 0-53-39-33-67l20-31z" fill="url(#paint44_radial)"/><path d="M237 789a39 39 0 0173 1l16 42c15 30-8 66-42 66h-21c-34 0-57-35-42-66l16-43z" fill="url(#paint45_radial)"/><path d="M237 789a39 39 0 0173 1l16 42c15 30-8 66-42 66h-21c-34 0-57-35-42-66l16-43z" fill="url(#paint46_radial)"/><path d="M395 944a87 87 0 0174-41h23a87 87 0 0174 42l32 53c30 38 2 94-46 94H408c-48 0-76-55-47-94l34-54z" fill="url(#paint47_radial)"/><path d="M395 944a87 87 0 0174-41h23a87 87 0 0174 42l32 53c30 38 2 94-46 94H408c-48 0-76-55-47-94l34-54z" fill="url(#paint48_radial)"/><path d="M406 830a87 87 0 0173-40h3a87 87 0 0174 41l22 37c25 32 2 78-38 78H421c-40 0-63-46-39-78l24-38z" fill="url(#paint49_radial)"/><path d="M406 830a87 87 0 0173-40h3a87 87 0 0174 41l22 37c25 32 2 78-38 78H421c-40 0-63-46-39-78l24-38z" fill="url(#paint50_radial)"/><path d="M424 740a67 67 0 01113 1l16 27c19 23 2 58-28 58h-89c-30 0-47-34-29-58l17-28z" fill="url(#paint51_radial)"/><path d="M424 740a67 67 0 01113 1l16 27c19 23 2 58-28 58h-89c-30 0-47-34-29-58l17-28z" fill="url(#paint52_radial)"/><path d="M449 638a34 34 0 0164 0l14 37c13 27-7 59-37 59h-19c-30 0-50-32-37-59l15-37z" fill="url(#paint53_radial)"/><path d="M449 638a34 34 0 0164 0l14 37c13 27-7 59-37 59h-19c-30 0-50-32-37-59l15-37z" fill="url(#paint54_radial)"/><path d="M1382 1105a87 87 0 0174-41h23a87 87 0 0174 42l32 53c30 38 2 94-46 94h-144c-48 0-76-55-47-94l34-54z" fill="url(#paint55_radial)"/><path d="M1382 1105a87 87 0 0174-41h23a87 87 0 0174 42l32 53c30 38 2 94-46 94h-144c-48 0-76-55-47-94l34-54z" fill="url(#paint56_radial)"/><path d="M1393 991a87 87 0 0173-40h3a87 87 0 0174 41l22 37c25 32 2 78-38 78h-119c-40 0-63-46-39-78l24-38z" fill="url(#paint57_radial)"/><path d="M1393 991a87 87 0 0173-40h3a87 87 0 0174 41l22 37c25 32 2 78-38 78h-119c-40 0-63-46-39-78l24-38z" fill="url(#paint58_radial)"/><path d="M1411 901a67 67 0 01113 1l16 27c19 23 2 58-28 58h-89c-30 0-47-34-29-58l17-28z" fill="url(#paint59_radial)"/><path d="M1411 901a67 67 0 01113 1l16 27c19 23 2 58-28 58h-89c-30 0-47-34-29-58l17-28z" fill="url(#paint60_radial)"/><path d="M1436 799a34 34 0 0132-22c14 0 27 9 32 22l14 37c13 27-7 59-37 59h-19c-30 0-50-32-37-59l15-37z" fill="url(#paint61_radial)"/><path d="M1436 799a34 34 0 0132-22c14 0 27 9 32 22l14 37c13 27-7 59-37 59h-19c-30 0-50-32-37-59l15-37z" fill="url(#paint62_radial)"/><path d="M1494 1005a87 87 0 0173-40h48a87 87 0 0174 41l44 72c36 47 2 114-56 114h-173c-58 0-92-67-57-114l47-73z" fill="url(#paint63_radial)"/><path d="M1494 1005a87 87 0 0173-40h48a87 87 0 0174 41l44 72c36 47 2 114-56 114h-173c-58 0-92-67-57-114l47-73z" fill="url(#paint64_radial)"/><path d="M1506 868a87 87 0 0174-40h22a87 87 0 0175 42l32 52c29 39 2 95-47 95h-143c-48 0-76-56-47-95l34-54z" fill="url(#paint65_radial)"/><path d="M1506 868a87 87 0 0174-40h22a87 87 0 0175 42l32 52c29 39 2 95-47 95h-143c-48 0-76-56-47-95l34-54z" fill="url(#paint66_radial)"/><path d="M1523 768a80 80 0 0168-37c28 0 54 15 68 38l20 32c22 29 1 71-35 71h-106c-36 0-57-41-36-71l21-33z" fill="url(#paint67_radial)"/><path d="M1523 768a80 80 0 0168-37c28 0 54 15 68 38l20 32c22 29 1 71-35 71h-106c-36 0-57-41-36-71l21-33z" fill="url(#paint68_radial)"/><path d="M1553 645a41 41 0 0138-26c17 0 33 11 39 27l17 44c16 33-8 71-44 71h-23c-36 0-61-38-45-71l18-45z" fill="url(#paint69_radial)"/><path d="M1553 645a41 41 0 0138-26c17 0 33 11 39 27l17 44c16 33-8 71-44 71h-23c-36 0-61-38-45-71l18-45z" fill="url(#paint70_radial)"/><path d="M375 294h-4l2-4h-2l-2 4h-3l3-4h-6a65 65 0 002-3h6l-1-2h-4l2-3-2-1-1 1-1 2-2-4-1 2 2 4-1 2-3-4-1 2-2 3v-1a75 75 0 00-1-1 1 1 0 010-1l3-5h-2l-2 3-2-3-2 1 2 3h-5l1 2h5l2 3h-5a304 304 0 012 4h-3l-2-4h-2l2 4h-4v2h4l-2 3 1 2 3-5h3l-2 4h5l-2 3h-4l-2 2h5l-2 3 2 1 2-3 2 3h2l-3-5 1-3 3 5 3-4a41 41 0 001 2 157 157 0 00-2 4l1 2v-1l1-1 1-1v-1l2 3 2-1-2-3h4l1-2h-6l-2-3h6l-3-4h3a199 199 0 013 5l1-2-1-1a63 63 0 01-1-2h4v-2zm-14 0l1-2h3l-1 1v1h-3zm-8-2h3l1 2h-3l-1-2zm4 4l-1 2h-3l1-2h4-1zm2-8l2 2-2 3-1-2 1-3zm2 12l-2 2-1-2v-1l1-2 2 2v1zm4-2h-3l-1-2h3l1 2zm97 79h-8l5-8h-5l-4 8h-6a218 218 0 015-8h-10l3-5h12l-2-4h-8l4-7-3-2a527 527 0 00-2 4l-2 3-5-8-2 4 5 8-3 4v1l-5-9-3 5-3 4-2-4v-1l6-10h-4l-5 7-4-8-3 2 4 7h-10l1 1 1 3h10l3 5h-10l5 9h-5l-1-1-4-7-1-1h-4l5 9h-8v3h8l-4 7 2 4 7-11h5l-5 9h10l-2 5h-10l-2 4h9l-4 7 3 2 5-8v1l4 6h4l-6-10 3-5 5 9 5-9v1a81 81 0 002 4 308 308 0 00-4 8l2 4 1-2 1-2 1-2 2-3 4 8 3-2-4-7h7l1-1 2-3h-12-1l-2-5h10l-5-9h6v1a382 382 0 016 10v-1l2-3-1-2-3-5h8v-4zm-28 0l3-4h6l-1 1-1 2-1 2h-6v-1zm-15-4h6l2 4v1h-5l-1-1-2-4zm8 8l-2 5h-6l3-5h6-1zm4-16v1l3 4v1l-3 5-3-5 3-6zm3 24l-3 4v0l-3-5 3-5 3 5v1zm9-3h-6l-3-5h6v1a100 100 0 013 4zM221 188h-6l4-6h-4v1l-3 5h-4a162 162 0 013-6h-7l2-4h9l-2-2h-6l3-6-2-1-1 3-2 2-3-6h-1l-1 3 3 6c1 0 1 0 0 0l-1 3-4-6-2 3-2 4v-1l-2-2v-1l4-8h-3l-3 5-3-5-2 1 3 6h-8l2 2h7l2 4h-7l3 7h-4v-1l-3-5-1-1h-3l4 7h-6v2h6l-3 6 2 2 4-8h5l-4 7h7l-2 3v1h-7l-1 2h7l-3 6 2 1 3-5 3 5h3l-4-8 2-4 4 7 4-6a60 60 0 001 3 230 230 0 00-3 6l1 3 1-2 1-1 1-2 1-1 3 5 2-1-3-6h6l2-2v-1h-9l-2-3h8l-4-7h4v1a293 293 0 014 7l2-3-1-1-2-4h6v-3zm-21 0l2-3h5l-1 1-1 1v2h-5v-1zm-11-3h4l2 3v1h-4v-1l-2-3zm6 6l-2 4h-4l2-4h4zm3-12v1l2 3-2 4-3-4 3-4zm2 18l-2 3v0l-2-3v-1l2-3 2 3v1zm7-2h-5l-2-4h5v1a74 74 0 012 3zm127 179h-3l2-3h-2l-1 3h-2a77 77 0 011-3h-4l2-2h4l-1-1h-3l2-3-1-1-1 2-1 1-2-3v1l1 3v2h-1l-1-3-1 1-1 2-1-1a1 1 0 010-1l2-3h-2l-1 2-2-2h-1l2 3h-4l1 1h3l2 2h-4l2 3h-2-1l-1-3h-2l2 3h-3v1h3l-1 3v1l3-4h2l-2 3h4l-1 2h-4l-1 1h4l-2 3 1 1 2-3 1 2h2l-2-3 1-2a135 135 0 012 3l1-3h1a28 28 0 000 2 107 107 0 00-1 3v1l1-1v-1h1v-1l2 2h1l-2-3h3l1-1h-4-1v-2h-1 4l-1-3h1l1 1a135 135 0 012 3v-1-1a45 45 0 01-1-2h3v-1zm-10 0l1-2h2a4 4 0 010 1h-1v1h-2zm-6-2h2l1 2h-2l-1-2zm3 3l-1 2h-2l1-2h2zm2-6v1l1 1-1 2a44 44 0 00-2-2l2-2zm1 9l-1 1v0l-1-1v-1l1-1 1 2zm3-1h-2l-1-2h2l1 2zm141 142h-3l2-3h-2l-1 3h-2a77 77 0 011-3h-4l2-2h4l-1-1h-3l2-3-1-1-1 2-1 1-2-3v1l1 3v2h-1l-1-3-1 1-1 2-1-1a1 1 0 010-1l2-3h-2l-1 2-2-2h-1l2 3h-4l1 1h3l2 2h-4l2 3h-2-1l-1-3h-2l2 3h-3v1h3l-1 3v1l3-4h2l-2 3h4l-1 2h-4l-1 1h4l-2 3 1 1 2-3 1 2h2l-2-3 1-2a135 135 0 012 3l1-3h1a28 28 0 000 2 107 107 0 00-1 3v1l1-1v-1h1v-1l2 2h1l-2-3h3l1-1h-4-1v-2h-1 4l-1-3h1l1 1a135 135 0 012 3v-1-1a45 45 0 01-1-2h3v-1zm-10 0l1-2h2a4 4 0 010 1h-1v1h-2zm-6-2h2l1 2h-2l-1-2zm3 3l-1 2h-2l1-2h2zm2-6v1l1 1-1 2a44 44 0 00-2-2l2-2zm1 9l-1 1v0l-1-1v-1l1-1 1 2zm3-1h-2l-1-2h2l1 2zm18 223h-3l2-3h-2l-1 3h-2a77 77 0 011-3h-4l2-2h4l-1-1h-3l2-3-1-1-1 2-1 1-2-3v1l1 3v2h-1l-1-3-1 1-1 2-1-1a1 1 0 010-1l2-3h-2l-1 2-2-2h-1l2 3h-4l1 1h3l2 2h-4l2 3h-2-1l-1-3h-2l2 3h-3v1h3l-1 3v1l3-4h2l-2 3h4l-1 2h-4l-1 1h4l-2 3 1 1 2-3 1 2h2l-2-3 1-2a135 135 0 012 3l1-3h1a28 28 0 000 2 107 107 0 00-1 3v1l1-1v-1h1v-1l2 2h1l-2-3h3l1-1h-4-1v-2h-1 4l-1-3h1l1 1a135 135 0 012 3v-1-1a45 45 0 01-1-2h3v-1zm-10 0l1-2h2a4 4 0 010 1h-1v1h-2zm-6-2h2l1 2h-2l-1-2zm3 3l-1 2h-2l1-2h2zm2-6v1l1 1-1 2a44 44 0 00-2-2l2-2zm1 9l-1 1v0l-1-1v-1l1-1 1 2zm3-1h-2l-1-2h2l1 2zm229-134h-4l2-3h-1-1l-2 3v1h-2a99 99 0 012-4h-5l2-3h5l-1-1h-3l1-4h-1l-1 1-1 2-2-4-1 2 2 3v1l-1 2-2-4-2 2-1 2a67 67 0 00-1-2v-1l3-4h-2l-2 3-2-3-1 1 1 3h-4l1 1h4l2 3h-5l2 4h-2l-2-4h-2l2 4h-4v1h4l-2 4 1 1 3-5h2l-2 4h5l-2 3h-4l-1 1h5l-2 4h1l2-3 2 3h2l-3-5 1-2 3 4 2-4a37 37 0 001 3 139 139 0 00-2 3l1 2v-1l1-1 1-1v-1l2 3 1-1-1-3h3l1-1h-5v-1l-2-2h5l-2-4h2l1 1a174 174 0 012 4l1-2-2-3h4v-2zm-13 0l1-1v-1h3v1l-1 1v1h-3v-1zm-7-2h3v1l1 2h-3l-1-2v-1zm4 4l-1 2v1h-3v-1l1-2h3zm2-7l1 2-1 3-2-3 2-2zm1 11l-1 2-2-2v-1l2-2 1 2v1zm4-1h-3l-1-3h3a47 47 0 011 3zm-64-214h-4l2-3h-1-1l-2 3v1h-2a99 99 0 012-4h-5l2-3h5l-1-1h-3l1-4h-1l-1 1-1 2-2-4-1 2 2 3v1l-1 2-2-4-2 2-1 2a67 67 0 00-1-2v-1l3-4h-2l-2 3-2-3-1 1 1 3h-4l1 1h4l2 3h-5l2 4h-2l-2-4h-2l2 4h-4v1h4l-2 4 1 1 3-5h2l-2 4h5l-2 3h-4l-1 1h5l-2 4h1l2-3 2 3h2l-3-5 1-2 3 4 2-4a37 37 0 001 3 139 139 0 00-2 3l1 2v-1l1-1 1-1v-1l2 3 1-1-1-3h3l1-1h-5v-1l-2-2h5l-2-4h2l1 1a174 174 0 012 4l1-2-2-3h4v-2zm-13 0l1-1v-1h3v1l-1 1v1h-3v-1zm-7-2h3v1l1 2h-3l-1-2v-1zm4 4l-1 2v1h-3v-1l1-2h3zm2-7l1 2-1 3-2-3 2-2zm1 11l-1 2-2-2v-1l2-2 1 2v1zm4-1h-3l-1-3h3a47 47 0 011 3zm277-37h-4l2-3h-1-1l-2 3v1h-2a99 99 0 012-4h-5l2-3h5l-1-1h-3l1-4h-1l-1 1-1 2-2-4-1 2 2 3v1l-1 2-2-4-2 2-1 2a67 67 0 00-1-2v-1l3-4h-2l-2 3-2-3-1 1 1 3h-4l1 1h4l2 3h-5l2 4h-2l-2-4h-2l2 4h-4v1h4l-2 4 1 1 3-5h2l-2 4h5l-2 3h-4l-1 1h5l-2 4h1l2-3 2 3h2l-3-5 1-2 3 4 2-4a37 37 0 001 3 139 139 0 00-2 3l1 2v-1l1-1 1-1v-1l2 3 1-1-1-3h3l1-1h-5v-1l-2-2h5l-2-4h2l1 1a174 174 0 012 4l1-2-2-3h4v-2zm-13 0l1-1v-1h3v1l-1 1v1h-3v-1zm-7-2h3v1l1 2h-3l-1-2v-1zm4 4l-1 2v1h-3v-1l1-2h3zm2-7l1 2-1 3-2-3 2-2zm1 11l-1 2-2-2v-1l2-2 1 2v1zm4-1h-3l-1-3h3a47 47 0 011 3zm176-181h-4l2-3h-1-1l-2 3v1h-2a98 98 0 012-4h-5l2-3h5l-1-1h-3l1-4h-1l-1 1-1 2-2-4-1 2 2 3v1l-1 2-2-4-2 2-1 2a68 68 0 00-1-2v-1l3-4h-2l-2 3-2-3-1 1 1 3h-4l1 1h4l2 3h-5l2 4h-2l-2-4h-2l2 4h-4v1h4l-2 4 1 1 3-5h2l-2 4h5l-2 3h-4l-1 1h4l-1 4h1l2-3 2 3h2l-3-5 1-2 3 4 2-4 1 2v1l-2 3 1 2v-1l1-1 1-1v-1l2 3 1-1-1-3h3l1-1h-5v-1l-2-2h5l-2-4h2l1 1a174 174 0 012 4l1-2-2-3h4v-2zm-13 0l1-1v-1h3v1l-1 1v1h-3v-1zm-7-2h3v1l1 2h-3l-1-2v-1zm4 4l-1 2v1h-3v-1l1-2h3zm2-7l1 2-1 3-2-3 2-2zm1 11l-1 2-2-2v-1l2-2 1 2v1zm4-1h-3l-1-3h3a45 45 0 011 3zm169 457h-4l2-3h-1-1l-2 3v1h-2a98 98 0 012-4h-5l2-3h5l-1-1h-3l1-4h-1l-1 1-1 2-2-4-1 2 2 3v1l-1 2-2-4-2 2-1 2a68 68 0 00-1-2v-1l3-4h-2l-2 3-2-3-1 1 1 3h-4l1 1h4l2 3h-5l2 4h-2l-2-4h-2l2 4h-4v1h4l-2 4 1 1 3-5h2l-2 4h5l-2 3h-4l-1 1h4l-1 4h1l2-3 2 3h2l-3-5 1-2 3 4 2-4 1 2v1l-2 3 1 2v-1l1-1 1-1v-1l2 3 1-1-1-3h3l1-1h-5v-1l-2-2h5l-2-4h2l1 1a174 174 0 012 4l1-2-2-3h4v-2zm-13 0l1-1v-1h3v1l-1 1v1h-3v-1zm-7-2h3v1l1 2h-3l-1-2v-1zm4 4l-1 2v1h-3v-1l1-2h3zm2-7l1 2-1 3-2-3 2-2zm1 11l-1 2-2-2v-1l2-2 1 2v1zm4-1h-3l-1-3h3a45 45 0 011 3zm112-95h-4l2-3h-1-1l-2 3v1h-2a98 98 0 012-4h-5l2-3h5l-1-1h-3l1-4h-1l-1 1-1 2-2-4-1 2 2 3v1l-1 2-2-4-2 2-1 2a68 68 0 00-1-2v-1l3-4h-2l-2 3-2-3-1 1 1 3h-4l1 1h4l2 3h-5l2 4h-2l-2-4h-2l2 4h-4v1h4l-2 4 1 1 3-5h2l-2 4h5l-2 3h-4l-1 1h4l-1 4h1l2-3 2 3h2l-3-5 1-2 3 4 2-4 1 2v1l-2 3 1 2v-1l1-1 1-1v-1l2 3 1-1-1-3h3l1-1h-5v-1l-2-2h5l-2-4h2l1 1a174 174 0 012 4l1-2-2-3h4v-2zm-13 0l1-1v-1h3v1l-1 1v1h-3v-1zm-7-2h3v1l1 2h-3l-1-2v-1zm4 4l-1 2v1h-3v-1l1-2h3zm2-7l1 2-1 3-2-3 2-2zm1 11l-1 2-2-2v-1l2-2 1 2v1zm4-1h-3l-1-3h3a45 45 0 011 3zm-125-92h-4l2-3h-1-1l-2 3v1h-2a98 98 0 012-4h-5l2-3h5l-1-1h-3l1-4h-1l-1 1-1 2-2-4-1 2 2 3v1l-1 2-2-4-2 2-1 2a68 68 0 00-1-2v-1l3-4h-2l-2 3-2-3-1 1 1 3h-4l1 1h4l2 3h-5l2 4h-2l-2-4h-2l2 4h-4v1h4l-2 4 1 1 3-5h2l-2 4h5l-2 3h-4l-1 1h4l-1 4h1l2-3 2 3h2l-3-5 1-2 3 4 2-4 1 2v1l-2 3 1 2v-1l1-1 1-1v-1l2 3 1-1-1-3h3l1-1h-5v-1l-2-2h5l-2-4h2l1 1a174 174 0 012 4l1-2-2-3h4v-2zm-13 0l1-1v-1h3v1l-1 1v1h-3v-1zm-7-2h3v1l1 2h-3l-1-2v-1zm4 4l-1 2v1h-3v-1l1-2h3zm2-7l1 2-1 3-2-3 2-2zm1 11l-1 2-2-2v-1l2-2 1 2v1zm4-1h-3l-1-3h3a45 45 0 011 3zm-91-119h-4l2-3h-1-1l-2 3v1h-2a98 98 0 012-4h-5l2-3h5l-1-1h-3l1-4h-1l-1 1-1 2-2-4-1 2 2 3v1l-1 2-2-4-2 2-1 2a68 68 0 00-1-2v-1l3-4h-2l-2 3-2-3-1 1 1 3h-4l1 1h4l2 3h-5l2 4h-2l-2-4h-2l2 4h-4v1h4l-2 4 1 1 3-5h2l-2 4h5l-2 3h-4l-1 1h4l-1 4h1l2-3 2 3h2l-3-5 1-2 3 4 2-4 1 2v1l-2 3 1 2v-1l1-1 1-1v-1l2 3 1-1-1-3h3l1-1h-5v-1l-2-2h5l-2-4h2l1 1a174 174 0 012 4l1-2-2-3h4v-2zm-13 0l1-1v-1h3v1l-1 1v1h-3v-1zm-7-2h3v1l1 2h-3l-1-2v-1zm4 4l-1 2v1h-3v-1l1-2h3zm2-7l1 2-1 3-2-3 2-2zm1 11l-1 2-2-2v-1l2-2 1 2v1zm4-1h-3l-1-3h3a45 45 0 011 3zm256-89h-4l2-3h-1-1l-2 3v1h-2a98 98 0 012-4h-5l2-3h5l-1-1h-3l1-4h-1l-1 1-1 2-2-4-1 2 2 3v1l-1 2-2-4-2 2-1 2a68 68 0 00-1-2v-1l3-4h-2l-2 3-2-3-1 1 1 3h-4l1 1h4l2 3h-5l2 4h-2l-2-4h-2l2 4h-4v1h4l-2 4 1 1 3-5h2l-2 4h5l-2 3h-4l-1 1h4l-1 4h1l2-3 2 3h2l-3-5 1-2 3 4 2-4 1 2v1l-2 3 1 2v-1l1-1 1-1v-1l2 3 1-1-1-3h3l1-1h-5v-1l-2-2h5l-2-4h2l1 1a174 174 0 012 4l1-2-2-3h4v-2zm-13 0l1-1v-1h3v1l-1 1v1h-3v-1zm-7-2h3v1l1 2h-3l-1-2v-1zm4 4l-1 2v1h-3v-1l1-2h3zm2-7l1 2-1 3-2-3 2-2zm1 11l-1 2-2-2v-1l2-2 1 2v1zm4-1h-3l-1-3h3a45 45 0 011 3zm-71-68h-7l4-8h-3-1v1l-4 6v1h-4l4-8h-9l2-4h11l-2-3h-7l4-6-3-2a689 689 0 00-4 6l-4-7-2 3 4 7v1l-2 3-4-7-3 4-2 4v-1l-2-3v-1l5-8v-1h-4l-3 6-4-6-3 2 4 6h-9 1l1 3h9l2 5h-9l5 7h-5l-4-7h-4l4 7h-7v3h7l-3 6 2 3 5-9h5l-4 8h8l-2 4h-9l-1 3h8l-3 6 2 2 4-6 3 5 1 1h3l-5-10 2-4 5 8 4-7a67 67 0 002 4l-4 7 2 3 1-2 1-2 1-2 1-1 4 6 3-2-4-6h7l2-3h-11l-2-4v-1h9l-5-7h5l1 1 4 8 2-3-1-2-2-4h7v-3zm-24 0l2-4h5v1l-1 1-1 2h-5zm-14-4h6l2 4h-5-1l-2-4zm8 7l-2 4h-6l3-4h5zm3-14l2 4v1l-2 4-3-4 3-5zm2 20l-2 5v-1l-3-4 3-4 2 4zm8-2h-5l-3-4h6l2 4h1-1zm121 414h-3l2-3h-2l-1 3h-2a90 90 0 011-3h-4l2-2h4l-1-1h-3l2-3-1-1-1 2-1 1-2-3v1l1 3v2h-1l-1-3-1 1-1 2-1-1a1 1 0 010-1l2-3h-2l-1 2-2-2h-1l2 3h-4l1 1h3l2 2h-4l2 3h-2-1l-1-3h-2l2 3h-3v1h3l-1 3v1l3-4h2l-2 3h4l-1 2h-4l-1 1h4l-2 3 1 1 2-3 1 2h2l-2-3 1-2 2 3 1-3h1v2l-1 3v1l1-1v-1h1v-1l2 2h1l-2-3h3l1-1h-4-1v-2h-1 4a509 509 0 00-1-3h1l1 1a180 180 0 012 3v-1-1l-1-2h3v-1zm-10 0l1-2h2v1h-1v1h-2zm-6-2h2l1 2h-2l-1-2zm3 3l-1 2h-2l1-2h2zm2-6v1l1 1-1 2-2-2 2-2zm1 9l-1 1v0l-1-1v-1l1-1 1 2zm3-1h-2l-1-2h2a34 34 0 011 2zM701 263h-4l2-3h-1-1l-2 3v1h-2a99 99 0 012-4h-5l2-3h5l-1-1h-3l1-4h-1l-1 1-1 2-2-4-1 2 2 3v1l-1 2-2-4-2 2-1 2a67 67 0 00-1-2v-1l3-4h-2l-2 3-2-3-1 1 1 3h-4l1 1h4l2 3h-5l2 4h-2l-2-4h-2l2 4h-4v1h4l-2 4 1 1 3-5h2l-2 4h5l-2 3h-4l-1 1h5l-2 4h1l2-3 2 3h2l-3-5 1-2 3 4 2-4a37 37 0 001 3 139 139 0 00-2 3l1 2v-1l1-1 1-1v-1l2 3 1-1-1-3h3l1-1h-5v-1l-2-2h5l-2-4h2l1 1a174 174 0 012 4l1-2-2-3h4v-2zm-13 0l1-1v-1h3v1l-1 1v1h-3v-1zm-7-2h3v1l1 2h-3l-1-2v-1zm4 4l-1 2v1h-3v-1l1-2h3zm2-7l1 2-1 3-2-3 2-2zm1 11l-1 2-2-2v-1l2-2 1 2v1zm4-1h-3l-1-3h3a47 47 0 011 3zm95-57h-3l2-3h-2l-1 3h-2a77 77 0 011-3h-4l2-2h4l-1-1h-3l2-3-1-1-1 2-1 1-2-3v1l1 3v2h-1l-1-3-1 1-1 2-1-1a1 1 0 010-1l2-3h-2l-1 2-2-2h-1l2 3h-4l1 1h3l2 2h-4l2 3h-2-1l-1-3h-2l2 3h-3v1h3l-1 3v1l3-4h2l-2 3h4l-1 2h-4l-1 1h4l-2 3 1 1 2-3 1 2h2l-2-3 1-2a135 135 0 012 3l1-3h1a28 28 0 000 2 107 107 0 00-1 3v1l1-1v-1h1v-1l2 2h1l-2-3h3l1-1h-4-1v-2h-1 4l-1-3h1l1 1a135 135 0 012 3v-1-1a45 45 0 01-1-2h3v-1zm-10 0l1-2h2a4 4 0 010 1h-1v1h-2zm-6-2h2l1 2h-2l-1-2zm3 3l-1 2h-2l1-2h2zm2-6v1l1 1-1 2a44 44 0 00-2-2l2-2zm1 9l-1 1v0l-1-1v-1l1-1 1 2zm3-1h-2l-1-2h2l1 2zm726-128h4l-2 3h2l2-3v-1h2a98 98 0 01-2 4h5l-2 3h-5l1 1h3l-1 4h1l1-1 1-2 2 4 1-2-2-3v-1l1-2 2 4 2-2 1-2a69 69 0 001 2v1l-3 4h2l2-3 2 3 1-1-1-3h4l-1-1h-4l-2-3h5l-2-4h2l2 4h2l-2-4h4v-1h-4l2-4-1-1-3 5h-2l2-4h-5l2-3h4l1-1h-5l2-4h-1l-2 3-2-3h-2l3 5-1 2-3-4-2 4-1-2v-1l2-3-1-2-1 1v1l-1 1v1l-2-3-1 1 1 3h-3l-1 1h5v1l2 2h-5l2 4h-2l-1-1-2-4-1 2a48 48 0 012 3h-4v2zm13 0l-1 1v1h-3v-1l1-1v-1h3v1zm7 2h-3v-1l-1-2h3l1 2v1zm-4-4l1-2v-1h3v1l-1 2h-3zm-2 7l-1-2 1-3 2 3-2 2zm-1-11l1-2 2 2v1l-2 2-1-2v-1zm-4 1h3l1 3h-3l-1-2v-1zm70 68h6l-4 6h4v-1l3-5h4l-3 6h7l-2 4h-9l2 2h6l-3 6 2 1 1-3 2-2 3 6h1l1-3-3-6c-1 0-1 0 0 0l1-3 4 6 2-3 2-4v1a116 116 0 002 3l-4 8h3l3-5 3 5 2-1-3-6h8l-2-2h-7l-2-4h7l-3-7h4v1l3 5 1 1h3l-4-7h6v-2h-6l3-6-2-2-4 8h-5l4-7h-7l2-3v-1h7l1-2h-7l3-6-2-1-3 5-3-5h-3l4 8-2 4-4-7-4 6a54 54 0 00-1-3l3-6-1-3-1 2-1 1-1 2-1 1-3-5-2 1 3 6h-6l-2 2v1h9l2 3h-8l4 7h-4v-1l-4-7-2 3 1 1a95 95 0 012 4h-6v3zm21 0l-2 3h-5l1-1 1-1v-2h5v1zm11 3h-4l-2-3v-1h4v1l2 3zm-6-6l2-4h4l-2 4h-4zm-3 12v-1l-2-3 2-4 3 4-3 4zm-2-18l2-3v-1 1l2 3v1l-2 3-2-3v-1zm-7 2h5l2 4h-5v-1l-2-3zm-14 229h4l-2 3h2l2-3v-1h2a98 98 0 01-2 4h5l-2 3h-5l1 1h3l-1 4h1l1-1 1-2 2 4 1-2-2-3v-1l1-2 2 4 2-2 1-2a68 68 0 001 2v1l-3 4h2l2-3 2 3 1-1-1-3h4l-1-1h-4l-2-3h5l-2-4h2l2 4h2l-2-4h4v-1h-4l2-4-1-1-3 5h-2l2-4h-5l2-3h4l1-1h-5l2-4h-1l-2 3-2-3h-2l3 5-1 2-3-4-2 4-1-2v-1l2-3-1-2-1 1v1l-1 1v1l-2-3-1 1 1 3h-3l-1 1h5v1l2 2h-5l2 4h-2l-1-1-2-4-1 2a48 48 0 012 3h-4v2zm13 0l-1 1v1h-3v-1l1-1v-1h3v1zm7 2h-3v-1l-1-2h3l1 2v1zm-4-4l1-2v-1h3v1l-1 2h-3zm-2 7l-1-2 1-3 2 3-2 2zm-1-11l1-2 2 2v1l-2 2-1-2v-1zm-4 1h3l1 3h-3l-1-2v-1zm-73 126h3l-2 3h2l1-3h2a90 90 0 01-1 3h4l-2 2h-4l1 1h3l-2 3 1 1 1-2 1-1 2 3v-1l-1-3v-2h1l1 3 1-1 1-2 1 1v1l-2 3h2l1-2 2 2h1l-2-3h4l-1-1h-3l-2-2h4l-2-3h3l1 3h2l-2-3h3v-1h-3l1-3v-1l-3 4h-2l2-3h-4l1-2h4l1-1h-4l2-3-1-1-2 3-1-2h-2l2 3-1 2-2-3-1 3h-1v-2l1-3v-1l-1 1v1h-1v1l-2-2h-1l2 3h-3l-1 1h5l1 2h-4a509 509 0 002 3h-2l-1-1-2-3v2a44 44 0 011 2h-3v1zm10 0l-1 2h-2v-1h1v-1h2zm6 2h-2l-1-2h2l1 2zm-3-3l1-2h2l-1 2h-2zm-2 6v-1l-1-1 1-2 2 2-2 2zm-1-9l1-1v-1 1l1 1v1l-1 1-1-2zm-3 1h2l1 2h-2l-1-2zM554 800h-8l5-7h-4l-5 7v1h-5a202 202 0 015-8h-11l3-5h12l-2-3h-8l4-7-3-2a512 512 0 00-2 3l-2 4-4-8-2 3 4 8-2 4v1l-5-9-3 5-2 4h-1l-2-4v-1l6-9h-4l-4 6-4-7-3 2 4 7h-10l2 3h10l3 5h-10l4 8h-5l-5-8h-4l5 8h-8v3h8l-4 7 2 3 6-10h6l-5 8h10l-3 5h-9l-2 3h9l-4 7 3 2 4-7 4 6h4l-6-9 3-5 5 9 5-9v1a75 75 0 002 4 279 279 0 00-4 7v1l2 3 1-2 1-2 1-2 1-2 4 7 3-2-4-7h8l2-3h-12l-3-5h11l-5-8h5l1 1a357 357 0 015 9l2-4-1-1-3-5h8v-4zm-27 0l2-4h7l-1 2-1 1-1 2h-6v-1zm-15-4h6l2 5h1-6l-3-5zm9 8l-3 4v1h-6l3-5h6zm3-15v1l3 4-3 5-3-5 3-5zm3 22l-3 4v0l-3-4v-1l3-4 3 5zm9-2h-7l-2-5h6l3 5zm289 50h-25l15-25h-13l-1 1-14 23-1 1h-16l15-25h-33l9-16h38l-5-10h-26l13-22-10-5-6 10-7 11-14-25h-1l-6 11 15 24v2l-8 12-1 1-16-26-8 14-8 13-1-1-7-11-1-2v-1h1l18-30v-1h-13l-13 21-13-22-10 6 13 21h-30v1l6 9 1 1h30l9 16h-32l15 25h-16l-2-1-14-23-1-1h-13l16 25h-26v11h26l-13 21 7 11 19-32h18l-16 26h32v1l-9 14h-30l-6 11h30l-13 21 10 6 13-22v1c5 6 8 13 12 19l2 1h12l-19-32 8-13 16 27 16-27 1 1a240 240 0 007 14l-14 23-1 1 7 11 4-6 4-7 3-6 4-7 13 22 9-6-13-21h25l1-1 6-9v-1h-37l-1-1-9-14v-1h33l-16-26h16l1 1 2 3a1142 1142 0 0117 28v-1l6-10v-1l-2-4-10-15v-1h26v-11zm-87 0l8-13 1-1h19l-3 5-3 5-3 5h-20l1-1zm-48-14h18l1 1 8 13v1h-18l-1-1-8-13v-1zm27 26l-8 14h-19l9-14h19-1zm11-48v1l9 14v1l-10 15v1l-9-16 10-16zm8 70l-8 14-1 1v-1l-9-15v-1l9-14v-1 1l9 14v2zm29-7h-18l-1-1-9-14h19l1 1a297 297 0 019 14h-1zm-649 132H91l15-25H93l-1 1-14 23-1 1H61l15-25H43l9-16h38l-5-10H59l13-22-10-5-6 10-7 11-14-25h-1l-6 11 15 24v2l-8 12-1 1-16-26-8 14-8 13-1-1-7-11-1-2v-1h1l18-30v-1H-1l-13 21-13-22-10 6 13 21h-30v1l6 9 1 1h30l9 16h-32l15 25h-16l-2-1-14-23-1-1h-13l16 25h-26v11h26l-13 21 7 11 19-32h18l-16 26h32v1l-9 14h-30l-6 11h30l-13 21 10 6 13-22v1c5 6 8 13 12 19l2 1h12l-19-32 8-13 16 27 16-27 1 1a239 239 0 007 14l-14 23-1 1 7 11 4-6 4-7 3-6 4-7 13 22 9-6-13-21h25l1-1 6-9v-1H53l-1-1-9-14v-1h33l-16-26h16l1 1 2 3a1165 1165 0 0117 28v-1l6-10v-1l-2-4-10-15v-1h26v-11zm-87 0l8-13 1-1h19l-3 5-3 5a2055 2055 0 01-3 5H28l1-1zm-48-14h18l1 1 8 13v1h-18l-1-1-8-13v-1zm27 26l-8 14h-19l9-14H9 8zm11-48v1l9 14v1l-10 15v1l-9-16 10-16zm8 70l-8 14-1 1v-1l-9-15v-1l9-14v-1 1l9 14v2zm29-7H38l-1-1-9-14h19l1 1 9 13v1h-1zm1295-591h-15l9-14h-7l-1 1-8 13h-10l9-14h-19l5-9h22v-1l-3-5h-15l8-13-6-3a833 833 0 00-4 6l-3 6-9-14-4 6h1l8 14v1l-5 7v1l-9-15-5 8-5 7-4-7v-1c-1 0-1 0 0 0l10-18h-7l-7 12-8-12-6 3 8 12h-18l4 6h18l5 9h-19l9 15h-9l-1-1-8-13-1-1h-7l9 15h-15v6h15l-7 12 4 6 11-18h10l-9 15h18l-5 9h-18l-3 6h17l-7 12 5 4 8-13v1l7 11h8l-11-18 5-8 9 16 9-16v1a135 135 0 005 8 551 551 0 00-9 13v1l4 6 2-4 2-3 2-4 3-4 7 12 5-3-7-12h15l3-6h-21l-1-1-5-8h19l-9-15h10l1 2a677 677 0 019 16h1l3-6v-1l-1-2-6-9v-1h15v-6zm-50 0l4-7 1-1h11l-2 3-1 3-2 3h-11v-1zm-27-8h10v1l5 7v1h-10l-1-1-4-7-1-1h1zm15 15l-5 8h-11 1l4-8h11zm6-27l5 8s1 0 0 0l-5 9v1l-6-9 6-9zm5 40l-5 8-5-9v-1l5-8 5 9v1zm17-4h-11l-1-1-4-8h-1 11l1 1 5 7v1zm368 193h-15l9-14h-7l-1 1-8 13h-10l9-14h-19l5-9h22v-1l-3-5h-15l8-13-6-3a833 833 0 00-4 6l-3 6-9-14-4 6h1l8 14v1l-5 7v1l-9-15-5 8-5 7-4-7v-1c-1 0-1 0 0 0l10-18h-7l-7 12-8-12-6 3 8 12h-18l4 6h18l5 9h-19l9 15h-9l-1-1-8-13-1-1h-7l9 15h-15v6h15l-7 12 4 6 11-18h10l-9 15h18l-5 9h-18l-3 6h17l-7 12 5 4 8-13v1l7 11h8l-11-18 5-8 9 16 9-16v1a135 135 0 005 8 551 551 0 00-9 13v1l4 6 2-4 2-3 2-4 3-4 7 12 5-3-7-12h15l3-6h-21l-1-1-5-8h19l-9-15h10l1 2a677 677 0 019 16h1l3-6v-1l-1-2-6-9v-1h15v-6zm-50 0l4-7 1-1h11l-2 3-1 3-2 3h-11v-1zm-27-8h10v1l5 7v1h-10l-1-1-4-7-1-1h1zm15 15l-5 8h-11 1l4-8h11zm6-27l5 8s1 0 0 0l-5 9v1l-6-9 6-9zm5 40l-5 8-5-9v-1l5-8 5 9v1zm17-4h-11l-1-1-4-8h-1 11l1 1 5 7v1zm-63 364h-15l9-14h-7l-1 1-8 13h-10l9-14h-19l5-9h22v-1l-3-5h-15l8-13-6-3a719 719 0 00-4 6l-3 6-9-14-4 6h1l8 14v1l-5 7v1l-9-15-5 8-5 7-4-7v-1c-1 0-1 0 0 0l10-18h-7l-7 12-8-12-6 3 8 12h-18l4 6h18l5 9h-19l9 15h-9l-1-1-8-13-1-1h-7l9 15h-15v6h15l-7 12 4 6 11-18h10l-9 15h18l-5 9h-18l-3 6h17l-7 12 5 4 8-13v1l7 11h8l-11-18 5-8 9 16 9-16v1a139 139 0 005 8 554 554 0 00-9 13v1l4 6 2-4 2-3 2-4 3-4 7 12 5-3-7-12h15l3-6h-21l-1-1-5-8h19l-9-15h10l1 2a656 656 0 019 16h1l3-6v-1l-1-2-6-9v-1h15v-6zm-50 0l4-7 1-1h11l-2 3-1 3-2 3h-11v-1zm-27-8h10v1l5 7v1h-10l-1-1-4-7-1-1h1zm15 15l-5 8h-11 1l4-8h11zm6-27l5 8s1 0 0 0l-5 9v1l-6-9 6-9zm5 40l-5 8-5-9v-1l5-8 5 9v1zm17-4h-11l-1-1-4-8h-1 12l5 8v1zm71-789h-15l9-14h-7l-1 1-8 13h-10l9-14h-19l5-9h22v-1l-3-5h-15l8-13-6-3a833 833 0 00-4 6l-3 6-9-14-4 6h1l8 14v1l-5 7v1l-9-15-5 8-5 7-4-7v-1c-1 0-1 0 0 0l10-18h-7l-7 12-8-12-6 3 8 12h-18l4 6h18l5 9h-19l9 15h-9l-1-1-8-13-1-1h-7l9 15h-15v6h15l-7 12 4 6 11-18h10l-9 15h18l-5 9h-18l-3 6h17l-7 12 5 4 8-13v1l7 11h8l-11-18 5-8 9 16 9-16v1a135 135 0 005 8 551 551 0 00-9 13v1l4 6 2-4 2-3 2-4 3-4 7 12 5-3-7-12h15l3-6h-21l-1-1-5-8h19l-9-15h10l1 2a677 677 0 019 16h1l3-6v-1l-1-2-6-9v-1h15v-6zm-50 0l4-7 1-1h11l-2 3-1 3-2 3h-11v-1zm-27-8h10v1l5 7v1h-10l-1-1-4-7-1-1h1zm15 15l-5 8h-11 1l4-8h11zm6-27l5 8s1 0 0 0l-5 9v1l-6-9 6-9zm5 40l-5 8-5-9v-1l5-8 5 9v1zm17-4h-11l-1-1-4-8h-1 11l1 1 5 7v1zm-136 511h-25l15-25h-13l-1 1-14 23-1 1h-16l15-25h-33l9-16h38l-5-10h-26l13-22-10-5-6 10-7 11c-5-8-9-17-15-25l-6 11 15 24v2l-8 12-1 1-16-26-8 14-8 13-1-1-7-11-1-2v-1h1l18-30v-1h-13l-13 21-13-22-10 6 13 21h-30v1l6 9 1 1h30l9 16h-32l15 25h-16l-2-1-14-23-1-1h-13l16 25h-26v11h26l-13 21 7 11 19-32h18l-16 26h32v1l-9 14h-30l-6 11h30l-13 21 10 6 13-22v1c5 6 8 13 12 19l2 1h12l-19-32 8-13 16 27 16-27 1 1a240 240 0 007 14l-14 23-1 1 7 11 4-6 4-7 3-6 4-7 13 22 9-6-13-21h25l1-1 6-9v-1h-37l-1-1-9-14v-1h33l-16-26h16l1 1 2 3a1142 1142 0 0117 28v-1l6-10v-1l-2-4-10-15v-1h26v-11zm-87 0l8-13 1-1h19l-3 5a881 881 0 01-6 10h-20l1-1zm-48-14h18l1 1 8 13v1h-18l-1-1-8-13v-1zm27 26l-8 14h-19l9-14h19-1zm11-48v1l9 14v1l-10 15v1l-9-16 10-16zm8 70l-8 14-1 1v-1l-9-15v-1l9-14v-1 1l9 14v2zm29-7h-18l-1-1-9-14h19l1 1a291 291 0 019 14h-1zm-376 49h-8l5-7h-4l-5 7v1h-5l5-8h-11l3-5h12l-2-3h-8l4-7-3-2a933 933 0 00-2 3l-2 4-4-8-2 3 4 8-2 4v1l-5-9-3 5-2 4h-1l-2-4v-1l6-9h-4l-4 6-4-7-3 2 4 7h-10l2 3h10l3 5h-10l4 8h-5l-5-8h-4l5 8h-8v3h8l-4 7 2 3 6-10h6l-5 8h10l-3 5h-9l-2 3h9l-4 7 3 2 4-7 4 6h4l-6-9 3-5 5 9 5-9v1a75 75 0 002 4 279 279 0 00-4 7v1l2 3 1-2 1-2 1-2 1-2 4 7 3-2-4-7h8l2-3h-12l-3-5h11l-5-8h5l1 1a340 340 0 015 9l2-4-1-1-3-5h8v-4zm-27 0l2-4h7l-1 2-1 1-1 2h-6v-1zm-15-4h6l2 5h1-6l-3-5zm9 8l-3 4v1h-6l3-5h6zm3-15v1l3 4-3 5-3-5 3-5zm3 22l-3 4v0l-3-4v-1l3-4 3 5zm9-2h-7l-2-5h6a90 90 0 013 5zM316 725h-3l2-3h-2l-1 3h-2a77 77 0 011-3h-4l2-2h4l-1-1h-3l2-3-1-1-1 2-1 1-2-3v1l1 3v2h-1l-1-3-1 1-1 2-1-1a1 1 0 010-1l2-3h-2l-1 2-2-2h-1l2 3h-4l1 1h3l2 2h-4l2 3h-2-1l-1-3h-2l2 3h-3v1h3l-1 3v1l3-4h2l-2 3h4l-1 2h-4l-1 1h4l-2 3 1 1 2-3 1 2h2l-2-3 1-2a135 135 0 012 3l1-3h1a28 28 0 000 2 107 107 0 00-1 3v1l1-1v-1h1v-1l2 2h1l-2-3h3l1-1h-4-1v-2h-1 4l-1-3h1l1 1a135 135 0 012 3v-1-1a45 45 0 01-1-2h3v-1zm-10 0l1-2h2a4 4 0 010 1h-1v1h-2zm-6-2h2l1 2h-2l-1-2zm3 3l-1 2h-2l1-2h2zm2-6v1l1 1-1 2a44 44 0 00-2-2l2-2zm1 9l-1 1v0l-1-1v-1l1-1 1 2zm3-1h-2l-1-2h2l1 2zm166-139h-21l12-21h-10l-1 1-12 20h-14l13-21h-28l8-13h32v-1l-5-8h-22l11-18-8-5-5 9-6 9-12-21-5 9 12 21v1l-7 11-13-22-7 12-7 11-1-1-5-9-1-2c-1 0-1 0 0 0v-1l15-25v-1h-10l-11 18-11-18-8 4 11 18h-26v1l5 8h26l8 14h-27l13 21h-14l-1-1-12-20h-11l12 21h-21v9h22l-11 18 6 9 16-27h14l-13 22h27l-7 12-1 1h-25l-5 9h25l-11 18 9 4 10-18 1 1 10 16 1 1h10l-16-27 7-11 14 22 13-22a204 204 0 007 12 763 763 0 00-12 20l-1 1 6 9 3-5 3-6 3-5 3-6 11 18 8-4-11-18h20l2-1 4-8 1-1h-32-1l-7-12v-1h28l-13-21h14l1 3a965 965 0 0114 23h1l5-9v-1l-3-3-7-13-1-1h22v-9zm-73 0l7-11 1-1h16l-3 5-2 4-3 4h-16v-1zm-39-12h14l1 1 7 11v1h-15l-1-1-6-11-1-1h1zm22 22l-7 12h-16 1l7-12h16-1zm9-40l8 12v1l-8 13h-1l-7-13 8-13zm7 58l-7 13-1-1-7-12v-1l7-12v-1l1 1 7 12v1zm24-6h-16l-7-12h15l2 1a251 251 0 017 11h-1zM189 376h-13l8-13h-7v1l-7 11-1 1h-8l8-13h-17l5-8h19l-3-5h-13l7-11-5-3a830 830 0 00-3 5l-4 6-7-13-3 5v1l7 12v1l-4 6-8-13-4 7-4 7-1-1-3-5-1-1v-1l10-15h-7l-6 10-7-11-5 3 7 11h-16l3 5h16l5 8h-16l7 13h-8-1l-7-12h-7l8 12H90v6h13l-6 10 3 6 10-16h9l-8 13h16l-5 7v1h-15l-3 5h15l-6 11 4 3 7-11 6 10h7l-10-16 5-7 8 14 8-13a123 123 0 004 7 462 462 0 00-7 12h-1l4 6 2-3 2-4 1-3 2-3 7 11 5-3-7-11h13l3-5v-1h-19l-5-7h17l-8-14h8v1l1 1a583 583 0 019 14l3-5-1-3-5-7v-1h13v-5zm-44 0l4-7h10l-1 2a1307 1307 0 01-3 5h-10zm-24-7h9l5 7h-10l-4-7zm14 13l-4 7h-10l4-7h10zm5-25v1l5 7-5 8-5-7 5-9zm4 36l-4 7v0l-5-7v-1l5-7v-1 1l5 7-1 1zm15-4h-10l-4-7h10l4 7zm78 476h-13l8-13h-7v1l-7 11-1 1h-8l8-13h-17l5-8h19l-3-5h-13l7-11-5-3a830 830 0 00-3 5l-4 6-7-13-3 5v1l7 12v1l-4 6-8-13-4 7-4 7-1-1-3-5-1-1v-1l10-15h-7l-6 10-7-11-5 3 7 11h-16l3 5h16l5 8h-16l7 13h-8-1l-7-12h-7l8 12h-13v6h13l-6 10 3 6 10-16h9l-8 13h16l-5 7v1h-15l-3 5h15l-6 11 4 3 7-11 6 10h7l-10-16 5-7 8 14 8-13a123 123 0 004 7 462 462 0 00-7 12h-1l4 6 2-3 2-4 1-3 2-3 7 11 5-3-7-11h13l3-5v-1h-19l-5-7h17l-8-14h8v1l1 1a583 583 0 019 14l3-5-1-3-5-7v-1h13v-5zm-44 0l4-7h10l-1 2a1307 1307 0 01-3 5h-10zm-24-7h9l5 7h-10l-4-7zm14 13l-4 7h-10l4-7h10zm5-25v1l5 7-5 8-5-7 5-9zm4 36l-4 7v0l-5-7v-1l5-7v-1 1l5 7-1 1zm15-4h-10l-4-7h10l4 7zm830-851h-4l2-3h-1-1l-2 3v1h-2l2-4h-5l2-3h5l-1-1h-3l1-4h-1l-1 1-1 2-2-4-1 2 2 3v1l-1 2-2-4-2 2-1 2a69 69 0 00-1-2v-1l3-4h-2l-2 3-2-3-1 1 1 3h-4l1 1h4l2 3h-5l2 4h-2l-2-4h-2l2 4h-4v1h4l-2 4 1 1 3-5h2l-2 4h5l-2 3h-4l-1 1h4l-1 4h1l2-3 2 3h2l-3-5 1-2 3 4 2-4 1 2v1l-2 3 1 2v-1l1-1 1-1v-1l2 3 1-1-1-3h3l1-1h-5v-1l-2-2h5l-2-4h2l1 1a174 174 0 012 4l1-2a48 48 0 01-2-3h4v-2zm-13 0l1-1v-1h3v1l-1 1v1h-3v-1zm-7-2h3v1l1 2h-3l-1-2v-1zm4 4l-1 2v1h-3v-1l1-2h3zm2-7l1 2-1 3-2-3 2-2zm1 11l-1 2-2-2v-1l2-2 1 2v1zm4-1h-3l-1-3h3a45 45 0 011 3zm149-22h-3l2-3h-2l-1 3h-2a90 90 0 011-3h-4l2-2h4l-1-1h-3l2-3-1-1-1 2-1 1-2-3v1l1 3v2h-1l-1-3-1 1-1 2-1-1a1 1 0 010-1l2-3h-2l-1 2-2-2h-1l2 3h-4l1 1h3l2 2h-4l2 3h-2-1l-1-3h-2l2 3h-3v1h3l-1 3v1l3-4h2l-2 3h4l-1 2h-4l-1 1h4l-2 3 1 1 2-3 1 2h2l-2-3 1-2 2 3 1-3h1v2l-1 3v1l1-1v-1h1v-1l2 2h1l-2-3h3l1-1h-4-1v-2h-1 4l-1-3h1l1 1a180 180 0 012 3v-1-1a44 44 0 01-1-2h3v-1zm-10 0l1-2h2v1h-1v1h-2zm-6-2h2l1 2h-2l-1-2zm3 3l-1 2h-2l1-2h2zm2-6v1l1 1-1 2a44 44 0 00-2-2l2-2zm1 9l-1 1v0l-1-1v-1l1-1 1 2zm3-1h-2l-1-2h2a34 34 0 011 2zM418 49h-4l2-4h-2l-2 4h-3a112 112 0 013-4h-6a65 65 0 002-3h6l-1-2h-4l2-3-2-1a298 298 0 00-1 1l-1 2-2-4-1 2 2 4-1 2-3-4-1 2-2 3v-1a77 77 0 00-1-1 1 1 0 010-1l3-5h-2l-2 3-2-3-2 1 2 3h-5l1 2h5l2 3h-5a304 304 0 012 4h-3l-2-4h-2l2 4h-4v2h4l-2 3 1 2 3-5h3l-2 4h5l-2 3h-4l-2 2h5l-2 3 2 1 2-3 2 3h2l-3-5 1-3 3 5 3-4a41 41 0 001 2 155 155 0 00-2 4l1 2v-1l1-1 1-1v-1l2 3 2-1-2-3h4l1-2h-6l-2-3h6l-3-4h3a199 199 0 013 5l1-2-1-1a63 63 0 01-1-2h4v-2zm-14 0l1-2h3l-1 1v1h-3zm-8-2h3l1 2h-3l-1-2zm4 4l-1 2h-3l1-2h4-1zm2-8l2 2-2 3-1-2 1-3zm2 12l-2 2-1-2v-1l1-2 2 2v1zm4-2h-3l-1-2h3l1 2zm-31 76h-3l2-3h-2l-1 3h-2a77 77 0 011-3h-4l2-2h4l-1-1h-3l2-3-1-1-1 2-1 1-2-3v1l1 3v2h-1l-1-3-1 1-1 2-1-1a1 1 0 010-1l2-3h-2l-1 2-2-2h-1l2 3h-4l1 1h3l2 2h-4l2 3h-2-1l-1-3h-2l2 3h-3v1h3l-1 3v1l3-4h2l-2 3h4l-1 2h-4l-1 1h4l-2 3 1 1 2-3 1 2h2l-2-3 1-2a135 135 0 012 3l1-3h1a28 28 0 000 2 107 107 0 00-1 3v1l1-1v-1h1v-1l2 2h1l-2-3h3l1-1h-4-1v-2h-1 4l-1-3h1l1 1a135 135 0 012 3v-1-1a45 45 0 01-1-2h3v-1zm-10 0l1-2h2a4 4 0 010 1h-1v1h-2zm-6-2h2l1 2h-2l-1-2zm3 3l-1 2h-2l1-2h2zm2-6v1l1 1-1 2a44 44 0 00-2-2l2-2zm1 9l-1 1v0l-1-1v-1l1-1 1 2zm3-1h-2l-1-2h2l1 2zM134 75h-3l2-3h-2l-1 3h-2a77 77 0 011-3h-4l2-2h4l-1-1h-3l2-3-1-1-1 2-1 1-2-3v1l1 3v2h-1l-1-3-1 1-1 2-1-1a1 1 0 010-1l2-3h-2l-1 2-2-2h-1l2 3h-4l1 1h3l2 2h-4l2 3h-2-1l-1-3h-2l2 3h-3v1h3l-1 3v1l3-4h2l-2 3h4l-1 2h-4l-1 1h4l-2 3 1 1 2-3 1 2h2l-2-3 1-2 2 3 1-3h1a28 28 0 000 2l-1 3v1l1-1v-1h1v-1l2 2h1l-2-3h3l1-1h-4-1v-2h-1 4l-1-3h1l1 1a135 135 0 012 3v-1-1a45 45 0 01-1-2h3v-1zm-10 0l1-2h2v1h-1v1h-2zm-6-2h2l1 2h-2l-1-2zm3 3l-1 2h-2l1-2h2zm2-6v1l1 1-1 2a44 44 0 00-2-2l2-2zm1 9l-1 1v0l-1-1v-1l1-1 1 2zm3-1h-2l-1-2h2l1 2zm617-60h-4l2-3h-1-1l-2 3v1h-2a99 99 0 012-4h-5l2-3h5l-1-1h-3l1-4h-1l-1 1-1 2-2-4-1 2 2 3v1l-1 2-2-4-2 2-1 2a68 68 0 00-1-2v-1l3-4h-2l-2 3-2-3-1 1 1 3h-4l1 1h4l2 3h-5l2 4h-2l-2-4h-2l2 4h-4v1h4l-2 4 1 1 3-5h2l-2 4h5l-2 3h-4l-1 1h5l-2 4h1l2-3 2 3h2l-3-5 1-2 3 4 2-4a37 37 0 001 3 139 139 0 00-2 3l1 2v-1l1-1 1-1v-1l2 3 1-1-1-3h3l1-1h-5v-1l-2-2h5l-2-4h2l1 1a176 176 0 012 4l1-2-2-3h4v-2zm-13 0l1-1v-1h3v1l-1 1v1h-3v-1zm-7-2h3v1l1 2h-3l-1-2v-1zm4 4l-1 2v1h-3v-1l1-2h3zm2-7l1 2-1 3-2-3 2-2zm1 11l-1 2-2-2v-1l2-2 1 2v1zm4-1h-3l-1-3h3l1 2v1zm223 85h-3l2-3h-2l-1 3h-2a77 77 0 011-3h-4l2-2h4l-1-1h-3l2-3-1-1-1 2-1 1-2-3v1l1 3v2h-1l-1-3-1 1-1 2-1-1a1 1 0 010-1l2-3h-2l-1 2-2-2h-1l2 3h-4l1 1h3l2 2h-4l2 3h-2-1l-1-3h-2l2 3h-3v1h3l-1 3v1l3-4h2l-2 3h4l-1 2h-4l-1 1h4l-2 3 1 1 2-3 1 2h2l-2-3 1-2a135 135 0 012 3l1-3h1a28 28 0 000 2 107 107 0 00-1 3v1l1-1v-1h1v-1l2 2h1l-2-3h3l1-1h-4-1v-2h-1 4l-1-3h1l1 1a135 135 0 012 3v-1-1a45 45 0 01-1-2h3v-1zm-10 0l1-2h2a4 4 0 010 1h-1v1h-2zm-6-2h2l1 2h-2l-1-2zm3 3l-1 2h-2l1-2h2zm2-6v1l1 1-1 2a44 44 0 00-2-2l2-2zm1 9l-1 1v0l-1-1v-1l1-1 1 2zm3-1h-2l-1-2h2l1 2zm-300 39h-3l2-3h-2l-1 3h-2a77 77 0 011-3h-4l2-2h4l-1-1h-3l2-3-1-1-1 2-1 1-2-3v1l1 3v2h-1l-1-3-1 1-1 2-1-1a1 1 0 010-1l2-3h-2l-1 2-2-2h-1l2 3h-4l1 1h3l2 2h-4l2 3h-2-1l-1-3h-2l2 3h-3v1h3l-1 3v1l3-4h2l-2 3h4l-1 2h-4l-1 1h4l-2 3 1 1 2-3 1 2h2l-2-3 1-2a135 135 0 012 3l1-3h1a28 28 0 000 2 107 107 0 00-1 3v1l1-1v-1h1v-1l2 2h1l-2-3h3l1-1h-4-1v-2h-1 4l-1-3h1l1 1a135 135 0 012 3v-1-1a45 45 0 01-1-2h3v-1zm-10 0l1-2h2a4 4 0 010 1h-1v1h-2zm-6-2h2l1 2h-2l-1-2zm3 3l-1 2h-2l1-2h2zm2-6v1l1 1-1 2a44 44 0 00-2-2l2-2zm1 9l-1 1v0l-1-1v-1l1-1 1 2zm3-1h-2l-1-2h2l1 2zm862 37h-3l2-3h-2l-1 3h-2a90 90 0 011-3h-4l2-2h4l-1-1h-3l2-3-1-1-1 2-1 1-2-3v1l1 3v2h-1l-1-3-1 1-1 2-1-1a1 1 0 010-1l2-3h-2l-1 2-2-2h-1l2 3h-4l1 1h3l2 2h-4l2 3h-2-1l-1-3h-2l2 3h-3v1h3l-1 3v1l3-4h2l-2 3h4l-1 2h-4l-1 1h4l-2 3 1 1 2-3 1 2h2l-2-3 1-2 2 3 1-3h1v2l-1 3v1l1-1v-1h1v-1l2 2h1l-2-3h3l1-1h-4-1v-2h-1 4a509 509 0 00-1-3h1l1 1a180 180 0 012 3v-1-1l-1-2h3v-1zm-10 0l1-2h2v1h-1v1h-2zm-6-2h2l1 2h-2l-1-2zm3 3l-1 2h-2l1-2h2zm2-6v1l1 1-1 2-2-2 2-2zm1 9l-1 1v0l-1-1v-1l1-1 1 2zm3-1h-2l-1-2h2a34 34 0 011 2zM1317 87h-3l2-3h-2l-1 3h-2a90 90 0 011-3h-4l2-2h4l-1-1h-3l2-3-1-1-1 2-1 1-2-3v1l1 3v2h-1l-1-3-1 1-1 2-1-1a1 1 0 010-1l2-3h-2l-1 2-2-2h-1l2 3h-4l1 1h3l2 2h-4l2 3h-2-1l-1-3h-2l2 3h-3v1h3l-1 3v1l3-4h2l-2 3h4l-1 2h-4l-1 1h4l-2 3 1 1 2-3 1 2h2l-2-3 1-2 2 3 1-3h1v2l-1 3v1l1-1v-1h1v-1l2 2h1l-2-3h3l1-1h-4-1v-2h-1 4l-1-3h1l1 1a180 180 0 012 3v-1-1a44 44 0 01-1-2h3v-1zm-10 0l1-2h2v1h-1v1h-2zm-6-2h2l1 2h-2l-1-2zm3 3l-1 2h-2l1-2h2zm2-6v1l1 1a44 44 0 00-1 2l-2-2 2-2zm1 9l-1 1v0l-1-1v-1l1-1 1 2zm3-1h-2l-1-2h2a34 34 0 011 2z" fill="#fff"/></g><defs><radialGradient id="paint0_radial" cx="0" cy="0" r="1" gradientUnits="userSpaceOnUse" gradientTransform="matrix(-379.646 0 0 -188.588 1434 1161)"><stop stop-color="#41A38E"/><stop offset="1" stop-color="#21BCA5"/></radialGradient><radialGradient id="paint1_radial" cx="0" cy="0" r="1" gradientUnits="userSpaceOnUse" gradientTransform="matrix(-379.646 0 0 -188.588 1434 1161)"><stop stop-color="#41A38E"/><stop offset="1" stop-color="#21BCA5"/></radialGradient><radialGradient id="paint2_radial" cx="0" cy="0" r="1" gradientUnits="userSpaceOnUse" gradientTransform="matrix(-314.588 0 0 -156.47 1401 1015)"><stop stop-color="#41A38E"/><stop offset="1" stop-color="#21BCA5"/></radialGradient><radialGradient id="paint3_radial" cx="0" cy="0" r="1" gradientUnits="userSpaceOnUse" gradientTransform="matrix(-314.588 0 0 -156.47 1401 1015)"><stop stop-color="#41A38E"/><stop offset="1" stop-color="#21BCA5"/></radialGradient><radialGradient id="paint4_radial" cx="0" cy="0" r="1" gradientUnits="userSpaceOnUse" gradientTransform="matrix(-234.705 0 0 -116.941 1361 895)"><stop stop-color="#41A38E"/><stop offset="1" stop-color="#21BCA5"/></radialGradient><radialGradient id="paint5_radial" cx="0" cy="0" r="1" gradientUnits="userSpaceOnUse" gradientTransform="matrix(-234.705 0 0 -116.941 1361 895)"><stop stop-color="#41A38E"/><stop offset="1" stop-color="#21BCA5"/></radialGradient><radialGradient id="paint6_radial" cx="0" cy="0" r="1" gradientUnits="userSpaceOnUse" gradientTransform="matrix(-149.059 0 0 -117.764 1318 803)"><stop stop-color="#41A38E"/><stop offset="1" stop-color="#21BCA5"/></radialGradient><radialGradient id="paint7_radial" cx="0" cy="0" r="1" gradientUnits="userSpaceOnUse" gradientTransform="matrix(-149.059 0 0 -117.764 1318 803)"><stop stop-color="#41A38E"/><stop offset="1" stop-color="#21BCA5"/></radialGradient><radialGradient id="paint8_radial" cx="0" cy="0" r="1" gradientUnits="userSpaceOnUse" gradientTransform="matrix(-314.245 0 0 -156.1 1296 1125)"><stop stop-color="#41A38E"/><stop offset="1" stop-color="#21BCA5"/></radialGradient><radialGradient id="paint9_radial" cx="0" cy="0" r="1" gradientUnits="userSpaceOnUse" gradientTransform="matrix(-314.245 0 0 -156.1 1296 1125)"><stop stop-color="#41A38E"/><stop offset="1" stop-color="#21BCA5"/></radialGradient><radialGradient id="paint10_radial" cx="0" cy="0" r="1" gradientUnits="userSpaceOnUse" gradientTransform="matrix(-260.394 0 0 -129.515 1269 1004)"><stop stop-color="#41A38E"/><stop offset="1" stop-color="#21BCA5"/></radialGradient><radialGradient id="paint11_radial" cx="0" cy="0" r="1" gradientUnits="userSpaceOnUse" gradientTransform="matrix(-260.394 0 0 -129.515 1269 1004)"><stop stop-color="#41A38E"/><stop offset="1" stop-color="#21BCA5"/></radialGradient><radialGradient id="paint12_radial" cx="0" cy="0" r="1" gradientUnits="userSpaceOnUse" gradientTransform="matrix(-194.273 0 0 -96.7956 1236 905)"><stop stop-color="#41A38E"/><stop offset="1" stop-color="#21BCA5"/></radialGradient><radialGradient id="paint13_radial" cx="0" cy="0" r="1" gradientUnits="userSpaceOnUse" gradientTransform="matrix(-194.273 0 0 -96.7956 1236 905)"><stop stop-color="#41A38E"/><stop offset="1" stop-color="#21BCA5"/></radialGradient><radialGradient id="paint14_radial" cx="0" cy="0" r="1" gradientUnits="userSpaceOnUse" gradientTransform="matrix(-123.38 0 0 -97.4773 1201 828)"><stop stop-color="#41A38E"/><stop offset="1" stop-color="#21BCA5"/></radialGradient><radialGradient id="paint15_radial" cx="0" cy="0" r="1" gradientUnits="userSpaceOnUse" gradientTransform="matrix(-123.38 0 0 -97.4773 1201 828)"><stop stop-color="#41A38E"/><stop offset="1" stop-color="#21BCA5"/></radialGradient><radialGradient id="paint16_radial" cx="0" cy="0" r="1" gradientUnits="userSpaceOnUse" gradientTransform="matrix(-463.63 0 0 -230.306 1631 1071)"><stop stop-color="#41A38E"/><stop offset="1" stop-color="#21BCA5"/></radialGradient><radialGradient id="paint17_radial" cx="0" cy="0" r="1" gradientUnits="userSpaceOnUse" gradientTransform="matrix(-463.63 0 0 -230.306 1631 1071)"><stop stop-color="#41A38E"/><stop offset="1" stop-color="#21BCA5"/></radialGradient><radialGradient id="paint18_radial" cx="0" cy="0" r="1" gradientUnits="userSpaceOnUse" gradientTransform="matrix(-384.179 0 0 -191.084 1591 893)"><stop stop-color="#41A38E"/><stop offset="1" stop-color="#21BCA5"/></radialGradient><radialGradient id="paint19_radial" cx="0" cy="0" r="1" gradientUnits="userSpaceOnUse" gradientTransform="matrix(-384.179 0 0 -191.084 1591 893)"><stop stop-color="#41A38E"/><stop offset="1" stop-color="#21BCA5"/></radialGradient><radialGradient id="paint20_radial" cx="0" cy="0" r="1" gradientUnits="userSpaceOnUse" gradientTransform="matrix(-286.626 0 0 -142.81 1542 746)"><stop stop-color="#41A38E"/><stop offset="1" stop-color="#21BCA5"/></radialGradient><radialGradient id="paint21_radial" cx="0" cy="0" r="1" gradientUnits="userSpaceOnUse" gradientTransform="matrix(-286.626 0 0 -142.81 1542 746)"><stop stop-color="#41A38E"/><stop offset="1" stop-color="#21BCA5"/></radialGradient><radialGradient id="paint22_radial" cx="0" cy="0" r="1" gradientUnits="userSpaceOnUse" gradientTransform="matrix(-182.033 0 0 -143.816 1490 634)"><stop stop-color="#41A38E"/><stop offset="1" stop-color="#21BCA5"/></radialGradient><radialGradient id="paint23_radial" cx="0" cy="0" r="1" gradientUnits="userSpaceOnUse" gradientTransform="matrix(-182.033 0 0 -143.816 1490 634)"><stop stop-color="#41A38E"/><stop offset="1" stop-color="#21BCA5"/></radialGradient><radialGradient id="paint24_radial" cx="0" cy="0" r="1" gradientUnits="userSpaceOnUse" gradientTransform="rotate(150 704 434) scale(183.263 211.614)"><stop stop-color="#EC991C"/><stop offset="1" stop-color="#E9B213"/></radialGradient><radialGradient id="paint25_radial" cx="0" cy="0" r="1" gradientUnits="userSpaceOnUse" gradientTransform="matrix(-429.646 0 0 -213.425 537 1018)"><stop stop-color="#41A38E"/><stop offset="1" stop-color="#21BCA5"/></radialGradient><radialGradient id="paint26_radial" cx="0" cy="0" r="1" gradientUnits="userSpaceOnUse" gradientTransform="matrix(-429.646 0 0 -213.425 537 1018)"><stop stop-color="#41A38E"/><stop offset="1" stop-color="#21BCA5"/></radialGradient><radialGradient id="paint27_radial" cx="0" cy="0" r="1" gradientUnits="userSpaceOnUse" gradientTransform="matrix(-356.019 0 0 -177.078 500 853)"><stop stop-color="#41A38E"/><stop offset="1" stop-color="#21BCA5"/></radialGradient><radialGradient id="paint28_radial" cx="0" cy="0" r="1" gradientUnits="userSpaceOnUse" gradientTransform="matrix(-356.019 0 0 -177.078 500 853)"><stop stop-color="#41A38E"/><stop offset="1" stop-color="#21BCA5"/></radialGradient><radialGradient id="paint29_radial" cx="0" cy="0" r="1" gradientUnits="userSpaceOnUse" gradientTransform="matrix(-265.616 0 0 -132.342 455 717)"><stop stop-color="#41A38E"/><stop offset="1" stop-color="#21BCA5"/></radialGradient><radialGradient id="paint30_radial" cx="0" cy="0" r="1" gradientUnits="userSpaceOnUse" gradientTransform="matrix(-265.616 0 0 -132.342 455 717)"><stop stop-color="#41A38E"/><stop offset="1" stop-color="#21BCA5"/></radialGradient><radialGradient id="paint31_radial" cx="0" cy="0" r="1" gradientUnits="userSpaceOnUse" gradientTransform="matrix(-168.69 0 0 -133.274 406 613)"><stop stop-color="#41A38E"/><stop offset="1" stop-color="#21BCA5"/></radialGradient><radialGradient id="paint32_radial" cx="0" cy="0" r="1" gradientUnits="userSpaceOnUse" gradientTransform="matrix(-168.69 0 0 -133.274 406 613)"><stop stop-color="#41A38E"/><stop offset="1" stop-color="#21BCA5"/></radialGradient><radialGradient id="paint33_radial" cx="0" cy="0" r="1" gradientUnits="userSpaceOnUse" gradientTransform="matrix(-488.646 0 0 -242.733 356 1176)"><stop stop-color="#41A38E"/><stop offset="1" stop-color="#21BCA5"/></radialGradient><radialGradient id="paint34_radial" cx="0" cy="0" r="1" gradientUnits="userSpaceOnUse" gradientTransform="matrix(-488.646 0 0 -242.733 356 1176)"><stop stop-color="#41A38E"/><stop offset="1" stop-color="#21BCA5"/></radialGradient><radialGradient id="paint35_radial" cx="0" cy="0" r="1" gradientUnits="userSpaceOnUse" gradientTransform="matrix(-404.909 0 0 -201.394 314 988)"><stop stop-color="#41A38E"/><stop offset="1" stop-color="#21BCA5"/></radialGradient><radialGradient id="paint36_radial" cx="0" cy="0" r="1" gradientUnits="userSpaceOnUse" gradientTransform="matrix(-404.909 0 0 -201.394 314 988)"><stop stop-color="#41A38E"/><stop offset="1" stop-color="#21BCA5"/></radialGradient><radialGradient id="paint37_radial" cx="0" cy="0" r="1" gradientUnits="userSpaceOnUse" gradientTransform="matrix(-302.092 0 0 -150.516 262 833)"><stop stop-color="#41A38E"/><stop offset="1" stop-color="#21BCA5"/></radialGradient><radialGradient id="paint38_radial" cx="0" cy="0" r="1" gradientUnits="userSpaceOnUse" gradientTransform="matrix(-302.092 0 0 -150.516 262 833)"><stop stop-color="#41A38E"/><stop offset="1" stop-color="#21BCA5"/></radialGradient><radialGradient id="paint39_radial" cx="0" cy="0" r="1" gradientUnits="userSpaceOnUse" gradientTransform="matrix(-191.855 0 0 -151.576 207 715)"><stop stop-color="#41A38E"/><stop offset="1" stop-color="#21BCA5"/></radialGradient><radialGradient id="paint40_radial" cx="0" cy="0" r="1" gradientUnits="userSpaceOnUse" gradientTransform="matrix(-191.855 0 0 -151.576 207 715)"><stop stop-color="#41A38E"/><stop offset="1" stop-color="#21BCA5"/></radialGradient><radialGradient id="paint41_radial" cx="0" cy="0" r="1" gradientUnits="userSpaceOnUse" gradientTransform="matrix(-356.019 0 0 -177.078 452 1139)"><stop stop-color="#41A38E"/><stop offset="1" stop-color="#21BCA5"/></radialGradient><radialGradient id="paint42_radial" cx="0" cy="0" r="1" gradientUnits="userSpaceOnUse" gradientTransform="matrix(-356.019 0 0 -177.078 452 1139)"><stop stop-color="#41A38E"/><stop offset="1" stop-color="#21BCA5"/></radialGradient><radialGradient id="paint43_radial" cx="0" cy="0" r="1" gradientUnits="userSpaceOnUse" gradientTransform="matrix(-265.616 0 0 -132.342 407 1003)"><stop stop-color="#41A38E"/><stop offset="1" stop-color="#21BCA5"/></radialGradient><radialGradient id="paint44_radial" cx="0" cy="0" r="1" gradientUnits="userSpaceOnUse" gradientTransform="matrix(-265.616 0 0 -132.342 407 1003)"><stop stop-color="#41A38E"/><stop offset="1" stop-color="#21BCA5"/></radialGradient><radialGradient id="paint45_radial" cx="0" cy="0" r="1" gradientUnits="userSpaceOnUse" gradientTransform="matrix(-168.69 0 0 -133.274 358 898)"><stop stop-color="#41A38E"/><stop offset="1" stop-color="#21BCA5"/></radialGradient><radialGradient id="paint46_radial" cx="0" cy="0" r="1" gradientUnits="userSpaceOnUse" gradientTransform="matrix(-168.69 0 0 -133.274 358 898)"><stop stop-color="#41A38E"/><stop offset="1" stop-color="#21BCA5"/></radialGradient><radialGradient id="paint47_radial" cx="0" cy="0" r="1" gradientUnits="userSpaceOnUse" gradientTransform="matrix(-379.646 0 0 -188.588 671 1092)"><stop stop-color="#41A38E"/><stop offset="1" stop-color="#21BCA5"/></radialGradient><radialGradient id="paint48_radial" cx="0" cy="0" r="1" gradientUnits="userSpaceOnUse" gradientTransform="matrix(-379.646 0 0 -188.588 671 1092)"><stop stop-color="#41A38E"/><stop offset="1" stop-color="#21BCA5"/></radialGradient><radialGradient id="paint49_radial" cx="0" cy="0" r="1" gradientUnits="userSpaceOnUse" gradientTransform="matrix(-314.588 0 0 -156.47 638 946)"><stop stop-color="#41A38E"/><stop offset="1" stop-color="#21BCA5"/></radialGradient><radialGradient id="paint50_radial" cx="0" cy="0" r="1" gradientUnits="userSpaceOnUse" gradientTransform="matrix(-314.588 0 0 -156.47 638 946)"><stop stop-color="#41A38E"/><stop offset="1" stop-color="#21BCA5"/></radialGradient><radialGradient id="paint51_radial" cx="0" cy="0" r="1" gradientUnits="userSpaceOnUse" gradientTransform="matrix(-234.705 0 0 -116.941 598 826)"><stop stop-color="#41A38E"/><stop offset="1" stop-color="#21BCA5"/></radialGradient><radialGradient id="paint52_radial" cx="0" cy="0" r="1" gradientUnits="userSpaceOnUse" gradientTransform="matrix(-234.705 0 0 -116.941 598 826)"><stop stop-color="#41A38E"/><stop offset="1" stop-color="#21BCA5"/></radialGradient><radialGradient id="paint53_radial" cx="0" cy="0" r="1" gradientUnits="userSpaceOnUse" gradientTransform="matrix(-149.059 0 0 -117.764 555 734)"><stop stop-color="#41A38E"/><stop offset="1" stop-color="#21BCA5"/></radialGradient><radialGradient id="paint54_radial" cx="0" cy="0" r="1" gradientUnits="userSpaceOnUse" gradientTransform="matrix(-149.059 0 0 -117.764 555 734)"><stop stop-color="#41A38E"/><stop offset="1" stop-color="#21BCA5"/></radialGradient><radialGradient id="paint55_radial" cx="0" cy="0" r="1" gradientUnits="userSpaceOnUse" gradientTransform="matrix(-379.646 0 0 -188.588 1658 1253)"><stop stop-color="#41A38E"/><stop offset="1" stop-color="#21BCA5"/></radialGradient><radialGradient id="paint56_radial" cx="0" cy="0" r="1" gradientUnits="userSpaceOnUse" gradientTransform="matrix(-379.646 0 0 -188.588 1658 1253)"><stop stop-color="#41A38E"/><stop offset="1" stop-color="#21BCA5"/></radialGradient><radialGradient id="paint57_radial" cx="0" cy="0" r="1" gradientUnits="userSpaceOnUse" gradientTransform="matrix(-314.588 0 0 -156.47 1625 1107)"><stop stop-color="#41A38E"/><stop offset="1" stop-color="#21BCA5"/></radialGradient><radialGradient id="paint58_radial" cx="0" cy="0" r="1" gradientUnits="userSpaceOnUse" gradientTransform="matrix(-314.588 0 0 -156.47 1625 1107)"><stop stop-color="#41A38E"/><stop offset="1" stop-color="#21BCA5"/></radialGradient><radialGradient id="paint59_radial" cx="0" cy="0" r="1" gradientUnits="userSpaceOnUse" gradientTransform="matrix(-234.705 0 0 -116.941 1585 987)"><stop stop-color="#41A38E"/><stop offset="1" stop-color="#21BCA5"/></radialGradient><radialGradient id="paint60_radial" cx="0" cy="0" r="1" gradientUnits="userSpaceOnUse" gradientTransform="matrix(-234.705 0 0 -116.941 1585 987)"><stop stop-color="#41A38E"/><stop offset="1" stop-color="#21BCA5"/></radialGradient><radialGradient id="paint61_radial" cx="0" cy="0" r="1" gradientUnits="userSpaceOnUse" gradientTransform="matrix(-149.059 0 0 -117.764 1542 895)"><stop stop-color="#41A38E"/><stop offset="1" stop-color="#21BCA5"/></radialGradient><radialGradient id="paint62_radial" cx="0" cy="0" r="1" gradientUnits="userSpaceOnUse" gradientTransform="matrix(-149.059 0 0 -117.764 1542 895)"><stop stop-color="#41A38E"/><stop offset="1" stop-color="#21BCA5"/></radialGradient><radialGradient id="paint63_radial" cx="0" cy="0" r="1" gradientUnits="userSpaceOnUse" gradientTransform="matrix(-457 0 0 -227.013 1820 1192)"><stop stop-color="#41A38E"/><stop offset="1" stop-color="#21BCA5"/></radialGradient><radialGradient id="paint64_radial" cx="0" cy="0" r="1" gradientUnits="userSpaceOnUse" gradientTransform="matrix(-457 0 0 -227.013 1820 1192)"><stop stop-color="#41A38E"/><stop offset="1" stop-color="#21BCA5"/></radialGradient><radialGradient id="paint65_radial" cx="0" cy="0" r="1" gradientUnits="userSpaceOnUse" gradientTransform="matrix(-378.685 0 0 -188.351 1781 1017)"><stop stop-color="#41A38E"/><stop offset="1" stop-color="#21BCA5"/></radialGradient><radialGradient id="paint66_radial" cx="0" cy="0" r="1" gradientUnits="userSpaceOnUse" gradientTransform="matrix(-378.685 0 0 -188.351 1781 1017)"><stop stop-color="#41A38E"/><stop offset="1" stop-color="#21BCA5"/></radialGradient><radialGradient id="paint67_radial" cx="0" cy="0" r="1" gradientUnits="userSpaceOnUse" gradientTransform="matrix(-282.527 0 0 -140.768 1733 872)"><stop stop-color="#41A38E"/><stop offset="1" stop-color="#21BCA5"/></radialGradient><radialGradient id="paint68_radial" cx="0" cy="0" r="1" gradientUnits="userSpaceOnUse" gradientTransform="matrix(-282.527 0 0 -140.768 1733 872)"><stop stop-color="#41A38E"/><stop offset="1" stop-color="#21BCA5"/></radialGradient><radialGradient id="paint69_radial" cx="0" cy="0" r="1" gradientUnits="userSpaceOnUse" gradientTransform="matrix(-179.429 0 0 -141.759 1681 761)"><stop stop-color="#41A38E"/><stop offset="1" stop-color="#21BCA5"/></radialGradient><radialGradient id="paint70_radial" cx="0" cy="0" r="1" gradientUnits="userSpaceOnUse" gradientTransform="matrix(-179.429 0 0 -141.759 1681 761)"><stop stop-color="#41A38E"/><stop offset="1" stop-color="#21BCA5"/></radialGradient></defs></svg>